<?xml version="1.0" standalone="no"?>
<!DOCTYPE svg PUBLIC "-//W3C//DTD SVG 20010904//EN"
 "http://www.w3.org/TR/2001/REC-SVG-20010904/DTD/svg10.dtd">
<svg version="1.0" xmlns="http://www.w3.org/2000/svg"
 width="1080.000000pt" height="1080.000000pt" viewBox="0 0 1080.000000 1080.000000"
 preserveAspectRatio="xMidYMid meet">
<metadata>
Created by potrace 1.14, written by Peter Selinger 2001-2017
</metadata>
<g transform="translate(0.000000,1080.000000) scale(0.100000,-0.100000)"
fill="#000000" stroke="none">
<path d="M0 5400 l0 -5400 5400 0 5400 0 0 5400 0 5400 -5400 0 -5400 0 0
-5400z m6510 5074 c58 -26 108 -76 134 -134 20 -43 21 -65 24 -415 3 -379 -3
-471 -35 -524 -28 -45 -66 -82 -108 -104 l-40 -22 -1387 -3 -1388 -2 0 -85 0
-85 1558 0 c1042 0 1569 -4 1594 -10 59 -17 120 -69 151 -130 32 -61 32 -90 7
-325 -11 -102 -1 -303 20 -417 30 -160 174 -338 395 -486 404 -271 728 -568
1000 -917 707 -907 993 -2077 785 -3211 -146 -796 -535 -1535 -1112 -2113
-717 -719 -1657 -1135 -2668 -1180 -1029 -46 -1986 277 -2780 938 -447 371
-838 884 -1076 1410 -72 159 -82 208 -61 281 19 66 72 132 131 163 l41 22
2836 5 2836 5 -991 1807 c-545 993 -994 1810 -998 1813 -4 4 -7 -689 -8 -1540
0 -1473 -1 -1550 -19 -1589 -23 -53 -74 -104 -131 -130 -45 -21 -52 -21 -1050
-21 -1107 0 -1048 -3 -1123 64 -85 76 -110 197 -63 296 13 28 441 691 950
1475 l926 1425 0 537 c0 518 1 539 21 592 38 104 159 177 267 162 57 -8 135
-51 166 -90 19 -26 2622 -4763 2712 -4936 36 -69 40 -172 9 -234 -22 -46 -72
-99 -118 -123 -30 -17 -179 -18 -2885 -21 l-2853 -2 28 -48 c47 -81 180 -279
245 -365 530 -697 1307 -1174 2168 -1331 235 -42 340 -51 630 -51 279 0 371 7
605 46 942 158 1803 721 2336 1529 297 451 480 944 554 1495 23 164 31 566 16
736 -55 610 -250 1166 -583 1663 -256 382 -604 728 -988 982 -133 88 -193 136
-299 239 -278 268 -370 487 -388 928 l-6 147 -1551 0 -1551 0 -50 24 c-60 28
-97 66 -124 126 -20 43 -21 64 -21 445 0 381 1 402 21 445 27 60 64 98 124
126 l50 24 1378 0 1377 0 0 100 0 100 -1058 0 c-1187 0 -1126 -4 -1208 72 -74
68 -101 174 -69 269 30 88 103 150 198 169 23 4 584 7 1247 7 1199 -2 1205 -2
1250 -23z"/>
</g>
</svg>
